<?xml version="1.0" encoding="UTF-8" standalone="no"?>
<!-- Created with Inkscape (http://www.inkscape.org/) -->

<svg
   width="19"
   height="19"
   viewBox="0 0 5.0270833 5.0270833"
   version="1.1"
   id="svg4416"
   inkscape:version="1.2.2 (1:1.2.2+202212051551+b0a8486541)"
   sodipodi:docname="star.svg"
   xml:space="preserve"
   xmlns:inkscape="http://www.inkscape.org/namespaces/inkscape"
   xmlns:sodipodi="http://sodipodi.sourceforge.net/DTD/sodipodi-0.dtd"
   xmlns:xlink="http://www.w3.org/1999/xlink"
   xmlns="http://www.w3.org/2000/svg"
   xmlns:svg="http://www.w3.org/2000/svg"
   xmlns:rdf="http://www.w3.org/1999/02/22-rdf-syntax-ns#"
   xmlns:cc="http://creativecommons.org/ns#"
   xmlns:dc="http://purl.org/dc/elements/1.1/"><defs
     id="defs4410"><linearGradient
       inkscape:collect="always"
       id="linearGradient4540-3"><stop
         style="stop-color:#fdf373;stop-opacity:1;"
         offset="0"
         id="stop4536" /><stop
         style="stop-color:#f9d302;stop-opacity:1;"
         offset="0.5"
         id="stop9403" /><stop
         style="stop-color:#fcf698;stop-opacity:1;"
         offset="1"
         id="stop4538" /></linearGradient><filter
       inkscape:collect="always"
       style="color-interpolation-filters:sRGB"
       id="filter1105"
       x="-0.07789081"
       y="-0.081343166"
       width="1.1557839"
       height="1.1582441"><feGaussianBlur
         inkscape:collect="always"
         stdDeviation="0.39410292"
         id="feGaussianBlur1107" /></filter><linearGradient
       inkscape:collect="always"
       xlink:href="#linearGradient4540-3"
       id="linearGradient7925"
       x1="1.2224793"
       y1="293.88443"
       x2="3.1660936"
       y2="294.55319"
       gradientUnits="userSpaceOnUse" /></defs><sodipodi:namedview
     id="base"
     pagecolor="#ffffff"
     bordercolor="#666666"
     borderopacity="1.0"
     inkscape:pageopacity="0.0"
     inkscape:pageshadow="2"
     inkscape:zoom="4"
     inkscape:cx="-96.25"
     inkscape:cy="33.5"
     inkscape:document-units="mm"
     inkscape:current-layer="layer1"
     showgrid="false"
     units="px"
     inkscape:window-width="1920"
     inkscape:window-height="1007"
     inkscape:window-x="0"
     inkscape:window-y="0"
     inkscape:window-maximized="1"
     inkscape:showpageshadow="2"
     inkscape:pagecheckerboard="0"
     inkscape:deskcolor="#d1d1d1"
     showguides="true" /><metadata
     id="metadata4413"><rdf:RDF><cc:Work
         rdf:about=""><dc:format>image/svg+xml</dc:format><dc:type
           rdf:resource="http://purl.org/dc/dcmitype/StillImage" /></cc:Work></rdf:RDF></metadata><g
     inkscape:label="Layer 1"
     inkscape:groupmode="layer"
     id="layer1"
     transform="translate(0,-291.97289)"
     style="display:inline"><path
       id="path1103"
       style="opacity:0.4;mix-blend-mode:normal;fill:#000000;stroke:#000000;stroke-width:1.26114;stroke-linecap:round;stroke-linejoin:bevel;stroke-opacity:1;filter:url(#filter1105)"
       inkscape:transform-center-y="-0.21802339"
       d="M 16.429297,-5.8202943 15.556771,-5.6174382 13.792168,0.63688352 6.3695905,0.71264904 6.3133774,2.0666523 12.159543,5.6569604 8.2490643,12.321882 9.2633447,13.358159 16.429297,8.7090953 23.595249,13.358159 24.611973,12.321882 20.699051,5.6569604 26.545216,2.0666523 26.491447,0.71264904 19.06887,0.63688352 17.301822,-5.6174382 Z"
       transform="matrix(0.20290956,0,0,0.211685,-0.9403863,293.57383)"
       sodipodi:nodetypes="ccccccccccccccccc" /><path
       id="path383"
       style="fill:url(#linearGradient7925);stroke:#a06920;stroke-width:0.261372;stroke-linecap:round;stroke-linejoin:bevel;stroke-opacity:1;fill-opacity:1"
       inkscape:transform-center-y="-0.21806529"
       d="m 2.1743737,292.11096 -0.1770439,0.0429 -0.3580548,1.32394 -1.50611195,0.016 -0.0114062,0.28662 1.18624295,0.76002 -0.79347356,1.41086 0.20580719,0.21937 1.45404027,-0.94928 1.4540402,0.94928 0.206303,-0.21937 -0.7939693,-1.41086 1.1862428,-0.76002 -0.01091,-0.28662 -1.5061118,-0.016 -0.3585509,-1.32394 z"
       sodipodi:nodetypes="ccccccccccccccccc" /><g
       id="g27835"
       transform="matrix(1,0,0,1.1943463,-0.00210173,-57.061933)"><path
         style="opacity:1;fill:#f0e7c6;fill-opacity:1;stroke:none;stroke-width:0.2;stroke-linecap:round;stroke-linejoin:bevel;stroke-dasharray:none;stroke-opacity:1"
         d="m 0.26119841,293.62327 c 0.4603601,-0.005 0.92072019,-0.01 1.38108029,-0.0145 0.043201,-0.0334 0.086402,-0.0668 0.1296027,-0.10026 -0.0043,0.055 -0.0086,0.10995 -0.012893,0.16492 -0.04031,0.0327 -0.090163,0.0654 -0.1405899,0.0736 -0.4475333,-0.0122 -0.89526345,-0.0177 -1.34268571,-0.0336 -0.0341716,0.009 -0.006859,-0.0733 -0.0145144,-0.0902 z"
         id="path26953"
         sodipodi:nodetypes="cccccccc" /><path
         style="opacity:1;fill:#f0e7c6;fill-opacity:1;stroke:none;stroke-width:0.2;stroke-linecap:round;stroke-linejoin:bevel;stroke-dasharray:none;stroke-opacity:1"
         d="m 4.0917611,293.62327 c -0.4603601,-0.005 -0.9207202,-0.01 -1.3810803,-0.0145 -0.043201,-0.0334 -0.086402,-0.0668 -0.1296027,-0.10026 0.0043,0.055 0.0086,0.10995 0.012893,0.16492 0.04031,0.0327 0.090163,0.0654 0.1405899,0.0736 0.4475333,-0.0122 0.8952634,-0.0177 1.3426857,-0.0336 0.034172,0.009 0.00685,-0.0733 0.014514,-0.0902 z"
         id="path27831"
         sodipodi:nodetypes="cccccccc" /></g><path
       style="opacity:1;fill:#f0e7c6;fill-opacity:1;stroke:none;stroke-width:0.2;stroke-linecap:round;stroke-linejoin:bevel;stroke-dasharray:none;stroke-opacity:1"
       d="m 0.73986406,296.00235 c 0.28144104,-0.35898 0.55666424,-0.85396 0.74173254,-1.30627 -0.019267,-0.0319 -0.038533,-0.0637 -0.0578,-0.0956 l -0.7449203,1.33219 z"
       id="path27936"
       sodipodi:nodetypes="ccccc" /><path
       style="opacity:1;fill:#f0e7c6;fill-opacity:1;stroke:none;stroke-width:0.2;stroke-linecap:round;stroke-linejoin:bevel;stroke-dasharray:none;stroke-opacity:1"
       d="m 2.109737,295.10912 c 0.00199,-0.0558 0.00397,-0.11161 0.00596,-0.16742 0.04273,0.003 0.087273,7.2e-4 0.1288932,0.007 0.4755136,0.32758 0.9510272,0.65516 1.4265408,0.98274 -0.020343,0.0219 -0.040685,0.0437 -0.061028,0.0656 -0.4557824,-0.29564 -0.9115649,-0.59128 -1.3673473,-0.88692 -0.04434,-3.8e-4 -0.088679,-7.6e-4 -0.1330187,-0.001 z"
       id="path27938"
       sodipodi:nodetypes="ccccccc" /></g></svg>
